<svg xmlns="http://www.w3.org/2000/svg" xmlns:xlink="http://www.w3.org/1999/xlink" width="500" zoomAndPan="magnify" viewBox="0 0 375 525.000007" height="700" preserveAspectRatio="xMidYMid meet" version="1.0"><defs><g/><clipPath id="6efe3ae316"><path d="M 0.355469 0 L 374.640625 0 L 374.640625 524 L 0.355469 524 Z M 0.355469 0 " clip-rule="nonzero"/></clipPath></defs><g clip-path="url(#6efe3ae316)"><path fill="#ffffff" d="M 0.355469 0 L 374.644531 0 L 374.644531 531.488281 L 0.355469 531.488281 Z M 0.355469 0 " fill-opacity="1" fill-rule="nonzero"/><path fill="#ffffff" d="M 0.355469 0 L 374.644531 0 L 374.644531 524 L 0.355469 524 Z M 0.355469 0 " fill-opacity="1" fill-rule="nonzero"/><path fill="#322f2f" d="M 0.355469 0 L 374.644531 0 L 374.644531 524 L 0.355469 524 Z M 0.355469 0 " fill-opacity="1" fill-rule="nonzero"/></g><g fill="#c18c5d" fill-opacity="1"><g transform="translate(61.673335, 232.401334)"><g><path d="M 50.765625 -100.964844 C 22.753906 -100.964844 0 -78.640625 0 -50.484375 C 0 -22.183594 22.753906 0 50.765625 0 C 55.746094 0 60.4375 -0.285156 64.988281 -1.847656 L 57.878906 -12.65625 C 57.59375 -13.367188 58.304688 -13.792969 58.589844 -13.367188 L 65.699219 -6.398438 C 70.816406 -1.5625 76.222656 0 81.199219 0 C 93.144531 0 103.382812 -10.664062 103.382812 -23.039062 C 103.382812 -28.15625 102.8125 -33.277344 97.695312 -38.253906 L 89.019531 -46.785156 C 89.019531 -46.785156 89.019531 -47.070312 89.445312 -46.785156 L 100.964844 -39.675781 C 101.820312 -43.371094 102.101562 -46.785156 102.101562 -50.484375 C 102.101562 -78.640625 79.066406 -100.964844 50.765625 -100.964844 Z M 50.765625 -56.027344 C 53.894531 -56.027344 56.457031 -53.328125 56.457031 -50.484375 C 56.457031 -47.496094 53.894531 -45.222656 50.765625 -45.222656 C 47.78125 -45.222656 45.222656 -47.496094 45.222656 -50.484375 C 45.222656 -53.328125 47.78125 -56.027344 50.765625 -56.027344 Z M 50.765625 -56.027344 "/></g></g></g><g fill="#c18c5d" fill-opacity="1"><g transform="translate(167.614156, 232.401334)"><g><path d="M 37.683594 -70.25 C 36.972656 -69.539062 35.695312 -70.675781 36.261719 -71.527344 L 44.367188 -84.183594 C 42.09375 -93.996094 33.132812 -100.964844 22.894531 -100.964844 C 10.238281 -100.964844 0 -90.585938 0 -78.070312 L 0 -22.894531 C 0 -10.382812 10.238281 0 22.894531 0 C 29.578125 0 34.699219 -2.84375 39.960938 -8.105469 L 55.175781 -23.320312 C 55.175781 -17.492188 57.449219 -11.234375 61.859375 -6.824219 C 66.125 -2.273438 71.8125 0 77.644531 0 C 83.472656 0 89.304688 -2.273438 93.855469 -6.824219 L 149.03125 -62 C 157.847656 -70.816406 157.5625 -85.75 149.03125 -94.28125 C 144.621094 -98.832031 138.792969 -100.964844 132.960938 -100.964844 C 127.132812 -100.964844 121.585938 -98.691406 117.175781 -94.28125 L 93.003906 -70.390625 C 92.007812 -69.394531 90.867188 -70.390625 91.578125 -71.527344 L 99.6875 -84.183594 C 97.125 -94.707031 87.597656 -100.964844 77.785156 -100.964844 C 72.097656 -100.964844 66.410156 -98.832031 61.859375 -94.28125 Z M 37.683594 -70.25 "/></g></g></g><g fill="#ecc8af" fill-opacity="1"><g transform="translate(55.388671, 226.116668)"><g><path d="M 50.765625 -100.964844 C 22.753906 -100.964844 0 -78.640625 0 -50.484375 C 0 -22.183594 22.753906 0 50.765625 0 C 55.746094 0 60.4375 -0.285156 64.988281 -1.847656 L 57.878906 -12.65625 C 57.59375 -13.367188 58.304688 -13.792969 58.589844 -13.367188 L 65.699219 -6.398438 C 70.816406 -1.5625 76.222656 0 81.199219 0 C 93.144531 0 103.382812 -10.664062 103.382812 -23.039062 C 103.382812 -28.15625 102.8125 -33.277344 97.695312 -38.253906 L 89.019531 -46.785156 C 89.019531 -46.785156 89.019531 -47.070312 89.445312 -46.785156 L 100.964844 -39.675781 C 101.820312 -43.371094 102.101562 -46.785156 102.101562 -50.484375 C 102.101562 -78.640625 79.066406 -100.964844 50.765625 -100.964844 Z M 50.765625 -56.027344 C 53.894531 -56.027344 56.457031 -53.328125 56.457031 -50.484375 C 56.457031 -47.496094 53.894531 -45.222656 50.765625 -45.222656 C 47.78125 -45.222656 45.222656 -47.496094 45.222656 -50.484375 C 45.222656 -53.328125 47.78125 -56.027344 50.765625 -56.027344 Z M 50.765625 -56.027344 "/></g></g></g><g fill="#ecc8af" fill-opacity="1"><g transform="translate(161.329492, 226.116668)"><g><path d="M 37.683594 -70.25 C 36.972656 -69.539062 35.695312 -70.675781 36.261719 -71.527344 L 44.367188 -84.183594 C 42.09375 -93.996094 33.132812 -100.964844 22.894531 -100.964844 C 10.238281 -100.964844 0 -90.585938 0 -78.070312 L 0 -22.894531 C 0 -10.382812 10.238281 0 22.894531 0 C 29.578125 0 34.699219 -2.84375 39.960938 -8.105469 L 55.175781 -23.320312 C 55.175781 -17.492188 57.449219 -11.234375 61.859375 -6.824219 C 66.125 -2.273438 71.8125 0 77.644531 0 C 83.472656 0 89.304688 -2.273438 93.855469 -6.824219 L 149.03125 -62 C 157.847656 -70.816406 157.5625 -85.75 149.03125 -94.28125 C 144.621094 -98.832031 138.792969 -100.964844 132.960938 -100.964844 C 127.132812 -100.964844 121.585938 -98.691406 117.175781 -94.28125 L 93.003906 -70.390625 C 92.007812 -69.394531 90.867188 -70.390625 91.578125 -71.527344 L 99.6875 -84.183594 C 97.125 -94.707031 87.597656 -100.964844 77.785156 -100.964844 C 72.097656 -100.964844 66.410156 -98.832031 61.859375 -94.28125 Z M 37.683594 -70.25 "/></g></g></g><g fill="#ffffff" fill-opacity="1"><g transform="translate(119.075639, 320.356292)"><g><path d="M 6.1875 -18.71875 C 8.019531 -18.71875 9.414062 -18.28125 10.375 -17.40625 C 11.332031 -16.539062 11.8125 -15.128906 11.8125 -13.171875 L 11.8125 -5.15625 C 11.8125 -3.226562 11.335938 -1.820312 10.390625 -0.9375 C 9.441406 -0.0507812 8.039062 0.390625 6.1875 0.390625 C 4.34375 0.390625 2.941406 -0.0390625 1.984375 -0.90625 C 1.035156 -1.769531 0.5625 -3.1875 0.5625 -5.15625 L 0.5625 -13.171875 C 0.5625 -15.109375 1.035156 -16.515625 1.984375 -17.390625 C 2.941406 -18.273438 4.34375 -18.71875 6.1875 -18.71875 Z M 5.296875 -14.515625 L 5.296875 -3.828125 C 5.296875 -3.460938 5.367188 -3.179688 5.515625 -2.984375 C 5.671875 -2.796875 5.894531 -2.703125 6.1875 -2.703125 C 6.476562 -2.703125 6.703125 -2.796875 6.859375 -2.984375 C 7.015625 -3.179688 7.09375 -3.460938 7.09375 -3.828125 L 7.09375 -14.515625 C 7.09375 -14.867188 7.015625 -15.144531 6.859375 -15.34375 C 6.703125 -15.539062 6.476562 -15.640625 6.1875 -15.640625 C 5.59375 -15.640625 5.296875 -15.265625 5.296875 -14.515625 Z M 5.296875 -14.515625 "/></g></g></g><g fill="#ffffff" fill-opacity="1"><g transform="translate(131.450425, 320.356292)"><g><path d="M 6.1875 -18.71875 C 8.019531 -18.71875 9.414062 -18.28125 10.375 -17.40625 C 11.332031 -16.539062 11.8125 -15.128906 11.8125 -13.171875 L 11.8125 -5.15625 C 11.8125 -3.226562 11.335938 -1.820312 10.390625 -0.9375 C 9.441406 -0.0507812 8.039062 0.390625 6.1875 0.390625 C 4.34375 0.390625 2.941406 -0.0390625 1.984375 -0.90625 C 1.035156 -1.769531 0.5625 -3.1875 0.5625 -5.15625 L 0.5625 -13.171875 C 0.5625 -15.109375 1.035156 -16.515625 1.984375 -17.390625 C 2.941406 -18.273438 4.34375 -18.71875 6.1875 -18.71875 Z M 5.296875 -14.515625 L 5.296875 -3.828125 C 5.296875 -3.460938 5.367188 -3.179688 5.515625 -2.984375 C 5.671875 -2.796875 5.894531 -2.703125 6.1875 -2.703125 C 6.476562 -2.703125 6.703125 -2.796875 6.859375 -2.984375 C 7.015625 -3.179688 7.09375 -3.460938 7.09375 -3.828125 L 7.09375 -14.515625 C 7.09375 -14.867188 7.015625 -15.144531 6.859375 -15.34375 C 6.703125 -15.539062 6.476562 -15.640625 6.1875 -15.640625 C 5.59375 -15.640625 5.296875 -15.265625 5.296875 -14.515625 Z M 5.296875 -14.515625 "/></g></g></g><g fill="#ffffff" fill-opacity="1"><g transform="translate(143.825211, 320.356292)"><g><path d="M 11.09375 -14.25 L 11.09375 -11.765625 C 11.09375 -10.304688 10.757812 -9.222656 10.09375 -8.515625 C 9.425781 -7.816406 8.492188 -7.46875 7.296875 -7.46875 L 5.140625 -7.46875 L 5.140625 0 L 0.5625 0 L 0.5625 -18.34375 L 6.859375 -18.34375 C 8.210938 -18.34375 9.253906 -17.984375 9.984375 -17.265625 C 10.722656 -16.554688 11.09375 -15.550781 11.09375 -14.25 Z M 7.09375 -11.609375 L 7.09375 -14.203125 C 7.09375 -14.910156 6.734375 -15.265625 6.015625 -15.265625 L 5.140625 -15.265625 L 5.140625 -10.5625 L 6.015625 -10.5625 C 6.734375 -10.5625 7.09375 -10.910156 7.09375 -11.609375 Z M 7.09375 -11.609375 "/></g></g></g><g fill="#ffffff" fill-opacity="1"><g transform="translate(155.224392, 320.356292)"><g><path d="M 5.515625 -18.71875 C 8.992188 -18.71875 10.734375 -17.410156 10.734375 -14.796875 L 10.734375 -12.96875 L 6.5 -12.96875 L 6.5 -14.5625 C 6.5 -15.382812 6.191406 -15.796875 5.578125 -15.796875 C 5.046875 -15.796875 4.78125 -15.421875 4.78125 -14.671875 L 4.78125 -13.75 C 4.78125 -13.40625 4.898438 -13.082031 5.140625 -12.78125 C 5.378906 -12.476562 5.632812 -12.234375 5.90625 -12.046875 C 6.175781 -11.859375 6.613281 -11.582031 7.21875 -11.21875 C 7.957031 -10.78125 8.585938 -10.34375 9.109375 -9.90625 C 9.628906 -9.476562 10.082031 -8.925781 10.46875 -8.25 C 10.851562 -7.582031 11.046875 -6.785156 11.046875 -5.859375 L 11.046875 -4.21875 C 11.046875 -2.488281 10.550781 -1.285156 9.5625 -0.609375 C 8.582031 0.0546875 7.234375 0.390625 5.515625 0.390625 C 3.640625 0.390625 2.316406 0.015625 1.546875 -0.734375 C 0.773438 -1.492188 0.390625 -2.660156 0.390625 -4.234375 L 0.390625 -6.671875 L 4.796875 -6.671875 L 4.796875 -3.640625 C 4.796875 -2.910156 5.0625 -2.546875 5.59375 -2.546875 C 5.882812 -2.546875 6.101562 -2.660156 6.25 -2.890625 C 6.394531 -3.117188 6.46875 -3.507812 6.46875 -4.0625 L 6.46875 -5.03125 C 6.46875 -5.5 6.34375 -5.910156 6.09375 -6.265625 C 5.851562 -6.628906 5.582031 -6.921875 5.28125 -7.140625 C 4.976562 -7.359375 4.550781 -7.640625 4 -7.984375 C 3.269531 -8.429688 2.660156 -8.851562 2.171875 -9.25 C 1.679688 -9.644531 1.253906 -10.15625 0.890625 -10.78125 C 0.535156 -11.414062 0.359375 -12.171875 0.359375 -13.046875 L 0.359375 -14.28125 C 0.359375 -17.238281 2.078125 -18.71875 5.515625 -18.71875 Z M 5.515625 -18.71875 "/></g></g></g><g fill="#ffffff" fill-opacity="1"><g transform="translate(166.623574, 320.356292)"><g><path d="M 5.234375 -4.859375 L 1.546875 -4.859375 L 0.75 -18.34375 L 5.9375 -18.34375 Z M 5.546875 0 L 1.3125 0 L 1.3125 -3.546875 L 5.546875 -3.546875 Z M 5.546875 0 "/></g></g></g><g fill="#ffffff" fill-opacity="1"><g transform="translate(173.298775, 320.356292)"><g/></g></g><g fill="#ffffff" fill-opacity="1"><g transform="translate(179.460496, 320.356292)"><g><path d="M 10.375 -14.640625 L 7.578125 -14.640625 L 7.578125 0 L 2.84375 0 L 2.84375 -14.640625 L 0.046875 -14.640625 L 0.046875 -18.34375 L 10.375 -18.34375 Z M 10.375 -14.640625 "/></g></g></g><g fill="#ffffff" fill-opacity="1"><g transform="translate(189.884073, 320.356292)"><g><path d="M 5.296875 -11.6875 L 7.09375 -11.6875 L 7.09375 -18.34375 L 11.8125 -18.34375 L 11.8125 0 L 7.09375 0 L 7.09375 -7.6875 L 5.296875 -7.6875 L 5.296875 0 L 0.5625 0 L 0.5625 -18.34375 L 5.296875 -18.34375 Z M 5.296875 -11.6875 "/></g></g></g><g fill="#ffffff" fill-opacity="1"><g transform="translate(202.258859, 320.356292)"><g><path d="M 8.546875 -14.640625 L 5.296875 -14.640625 L 5.296875 -11.28125 L 8.34375 -11.28125 L 8.34375 -7.734375 L 5.296875 -7.734375 L 5.296875 -3.703125 L 8.8125 -3.703125 L 8.8125 0 L 0.5625 0 L 0.5625 -18.34375 L 8.546875 -18.34375 Z M 8.546875 -14.640625 "/></g></g></g><g fill="#ffffff" fill-opacity="1"><g transform="translate(211.296051, 320.356292)"><g><path d="M 11.140625 -14.71875 L 11.140625 -12.875 C 11.140625 -11.863281 10.910156 -11.101562 10.453125 -10.59375 C 9.992188 -10.09375 9.300781 -9.804688 8.375 -9.734375 L 8.375 -9.6875 C 9.382812 -9.613281 10.128906 -9.320312 10.609375 -8.8125 C 11.085938 -8.300781 11.328125 -7.539062 11.328125 -6.53125 L 11.328125 0 L 6.90625 0 L 6.90625 -7.03125 C 6.90625 -8.039062 6.492188 -8.546875 5.671875 -8.546875 C 5.484375 -8.546875 5.304688 -8.523438 5.140625 -8.484375 L 5.140625 0 L 0.5625 0 L 0.5625 -18.34375 L 6.09375 -18.34375 C 7.1875 -18.34375 8.082031 -18.257812 8.78125 -18.09375 C 9.488281 -17.9375 10.054688 -17.59375 10.484375 -17.0625 C 10.921875 -16.539062 11.140625 -15.757812 11.140625 -14.71875 Z M 5.46875 -11.328125 C 6.019531 -11.328125 6.394531 -11.453125 6.59375 -11.703125 C 6.800781 -11.953125 6.90625 -12.238281 6.90625 -12.5625 L 6.90625 -14.171875 C 6.90625 -14.484375 6.800781 -14.765625 6.59375 -15.015625 C 6.394531 -15.273438 6.03125 -15.40625 5.5 -15.40625 L 5.140625 -15.40625 L 5.140625 -11.328125 Z M 5.46875 -11.328125 "/></g></g></g><g fill="#ffffff" fill-opacity="1"><g transform="translate(223.183034, 320.356292)"><g><path d="M 8.546875 -14.640625 L 5.296875 -14.640625 L 5.296875 -11.28125 L 8.34375 -11.28125 L 8.34375 -7.734375 L 5.296875 -7.734375 L 5.296875 -3.703125 L 8.8125 -3.703125 L 8.8125 0 L 0.5625 0 L 0.5625 -18.34375 L 8.546875 -18.34375 Z M 8.546875 -14.640625 "/></g></g></g><g fill="#ffffff" fill-opacity="1"><g transform="translate(232.220226, 320.356292)"><g><path d="M 4.625 -12.203125 L 1.546875 -12.203125 L 1.546875 -18.34375 L 4.625 -18.34375 Z M 4.625 -12.203125 "/></g></g></g><g fill="#ffffff" fill-opacity="1"><g transform="translate(238.381947, 320.356292)"><g><path d="M 5.515625 -18.71875 C 8.992188 -18.71875 10.734375 -17.410156 10.734375 -14.796875 L 10.734375 -12.96875 L 6.5 -12.96875 L 6.5 -14.5625 C 6.5 -15.382812 6.191406 -15.796875 5.578125 -15.796875 C 5.046875 -15.796875 4.78125 -15.421875 4.78125 -14.671875 L 4.78125 -13.75 C 4.78125 -13.40625 4.898438 -13.082031 5.140625 -12.78125 C 5.378906 -12.476562 5.632812 -12.234375 5.90625 -12.046875 C 6.175781 -11.859375 6.613281 -11.582031 7.21875 -11.21875 C 7.957031 -10.78125 8.585938 -10.34375 9.109375 -9.90625 C 9.628906 -9.476562 10.082031 -8.925781 10.46875 -8.25 C 10.851562 -7.582031 11.046875 -6.785156 11.046875 -5.859375 L 11.046875 -4.21875 C 11.046875 -2.488281 10.550781 -1.285156 9.5625 -0.609375 C 8.582031 0.0546875 7.234375 0.390625 5.515625 0.390625 C 3.640625 0.390625 2.316406 0.015625 1.546875 -0.734375 C 0.773438 -1.492188 0.390625 -2.660156 0.390625 -4.234375 L 0.390625 -6.671875 L 4.796875 -6.671875 L 4.796875 -3.640625 C 4.796875 -2.910156 5.0625 -2.546875 5.59375 -2.546875 C 5.882812 -2.546875 6.101562 -2.660156 6.25 -2.890625 C 6.394531 -3.117188 6.46875 -3.507812 6.46875 -4.0625 L 6.46875 -5.03125 C 6.46875 -5.5 6.34375 -5.910156 6.09375 -6.265625 C 5.851562 -6.628906 5.582031 -6.921875 5.28125 -7.140625 C 4.976562 -7.359375 4.550781 -7.640625 4 -7.984375 C 3.269531 -8.429688 2.660156 -8.851562 2.171875 -9.25 C 1.679688 -9.644531 1.253906 -10.15625 0.890625 -10.78125 C 0.535156 -11.414062 0.359375 -12.171875 0.359375 -13.046875 L 0.359375 -14.28125 C 0.359375 -17.238281 2.078125 -18.71875 5.515625 -18.71875 Z M 5.515625 -18.71875 "/></g></g></g><g fill="#ffffff" fill-opacity="1"><g transform="translate(249.772002, 320.356292)"><g/></g></g><g fill="#ffffff" fill-opacity="1"><g transform="translate(41.715182, 368.265036)"><g><path d="M 11.203125 -14.203125 L 11.28125 -14.203125 L 11.28125 -28.25 L 17.453125 -28.25 L 17.453125 0 L 11.28125 0 L 7.15625 -15.78125 L 7.046875 -15.78125 L 7.046875 0 L 0.875 0 L 0.875 -28.25 L 7.046875 -28.25 Z M 11.203125 -14.203125 "/></g></g></g><g fill="#ffffff" fill-opacity="1"><g transform="translate(60.035681, 368.265036)"><g><path d="M 9.53125 -28.84375 C 12.351562 -28.84375 14.503906 -28.171875 15.984375 -26.828125 C 17.460938 -25.484375 18.203125 -23.304688 18.203125 -20.296875 L 18.203125 -7.953125 C 18.203125 -4.972656 17.46875 -2.800781 16 -1.4375 C 14.539062 -0.0820312 12.382812 0.59375 9.53125 0.59375 C 6.6875 0.59375 4.53125 -0.0703125 3.0625 -1.40625 C 1.601562 -2.738281 0.875 -4.921875 0.875 -7.953125 L 0.875 -20.296875 C 0.875 -23.273438 1.601562 -25.441406 3.0625 -26.796875 C 4.53125 -28.160156 6.6875 -28.84375 9.53125 -28.84375 Z M 8.15625 -22.359375 L 8.15625 -5.890625 C 8.15625 -5.335938 8.269531 -4.910156 8.5 -4.609375 C 8.738281 -4.304688 9.082031 -4.15625 9.53125 -4.15625 C 9.976562 -4.15625 10.320312 -4.304688 10.5625 -4.609375 C 10.800781 -4.910156 10.921875 -5.335938 10.921875 -5.890625 L 10.921875 -22.359375 C 10.921875 -22.910156 10.800781 -23.335938 10.5625 -23.640625 C 10.320312 -23.941406 9.976562 -24.09375 9.53125 -24.09375 C 8.613281 -24.09375 8.15625 -23.515625 8.15625 -22.359375 Z M 8.15625 -22.359375 "/></g></g></g><g fill="#ffffff" fill-opacity="1"><g transform="translate(79.107988, 368.265036)"><g/></g></g><g fill="#ffffff" fill-opacity="1"><g transform="translate(88.604574, 368.265036)"><g><path d="M 8.03125 0 L 0.75 0 L 0.75 -28.25 L 8.03125 -28.25 Z M 8.03125 0 "/></g></g></g><g fill="#ffffff" fill-opacity="1"><g transform="translate(97.38892, 368.265036)"><g><path d="M 12.46875 -11.75 L 12.546875 -11.75 L 14.25 -28.25 L 24.046875 -28.25 L 24.046875 0 L 17.875 0 L 17.875 -20.96875 L 17.796875 -20.96875 L 14.75 0 L 10.171875 0 L 7.125 -20.96875 L 7.046875 -20.96875 L 7.046875 0 L 0.875 0 L 0.875 -28.25 L 10.5625 -28.25 Z M 12.46875 -11.75 "/></g></g></g><g fill="#ffffff" fill-opacity="1"><g transform="translate(122.317457, 368.265036)"><g><path d="M 18.125 0 L 10.84375 0 L 10.484375 -4.984375 L 7.828125 -4.984375 L 7.484375 0 L 0.203125 0 L 3.765625 -28.25 L 14.25 -28.25 Z M 7.828125 -9.96875 L 10.359375 -9.96875 L 9.09375 -23.265625 L 9.015625 -23.265625 Z M 7.828125 -9.96875 "/></g></g></g><g fill="#ffffff" fill-opacity="1"><g transform="translate(140.637957, 368.265036)"><g><path d="M 9.53125 -28.84375 C 12.382812 -28.84375 14.503906 -28.269531 15.890625 -27.125 C 17.273438 -25.976562 17.96875 -23.910156 17.96875 -20.921875 L 17.96875 -17.84375 L 10.6875 -17.84375 L 10.6875 -22.359375 C 10.6875 -23.015625 10.585938 -23.46875 10.390625 -23.71875 C 10.191406 -23.96875 9.90625 -24.09375 9.53125 -24.09375 C 8.613281 -24.09375 8.15625 -23.429688 8.15625 -22.109375 L 8.15625 -6.375 C 8.15625 -5.6875 8.269531 -5.160156 8.5 -4.796875 C 8.738281 -4.441406 9.082031 -4.265625 9.53125 -4.265625 C 10.03125 -4.265625 10.382812 -4.421875 10.59375 -4.734375 C 10.8125 -5.054688 10.921875 -5.5625 10.921875 -6.25 L 10.921875 -11.203125 L 9.421875 -11.203125 L 9.421875 -15.234375 L 18.203125 -15.234375 L 18.203125 0 L 13.453125 0 L 12.890625 -1.984375 C 12.265625 -1.140625 11.46875 -0.5 10.5 -0.0625 C 9.539062 0.375 8.503906 0.59375 7.390625 0.59375 C 5.078125 0.59375 3.410156 -0.1875 2.390625 -1.75 C 1.378906 -3.320312 0.875 -5.21875 0.875 -7.4375 L 0.875 -20.296875 C 0.875 -23.304688 1.597656 -25.484375 3.046875 -26.828125 C 4.492188 -28.171875 6.65625 -28.84375 9.53125 -28.84375 Z M 9.53125 -28.84375 "/></g></g></g><g fill="#ffffff" fill-opacity="1"><g transform="translate(159.710263, 368.265036)"><g><path d="M 13.171875 -22.546875 L 8.15625 -22.546875 L 8.15625 -17.375 L 12.859375 -17.375 L 12.859375 -11.90625 L 8.15625 -11.90625 L 8.15625 -5.703125 L 13.5625 -5.703125 L 13.5625 0 L 0.875 0 L 0.875 -28.25 L 13.171875 -28.25 Z M 13.171875 -22.546875 "/></g></g></g><g fill="#ffffff" fill-opacity="1"><g transform="translate(173.63859, 368.265036)"><g/></g></g><g fill="#ffffff" fill-opacity="1"><g transform="translate(183.135176, 368.265036)"><g><path d="M 18.125 0 L 10.84375 0 L 10.484375 -4.984375 L 7.828125 -4.984375 L 7.484375 0 L 0.203125 0 L 3.765625 -28.25 L 14.25 -28.25 Z M 7.828125 -9.96875 L 10.359375 -9.96875 L 9.09375 -23.265625 L 9.015625 -23.265625 Z M 7.828125 -9.96875 "/></g></g></g><g fill="#ffffff" fill-opacity="1"><g transform="translate(201.455676, 368.265036)"><g><path d="M 9.25 -5.453125 L 9.34375 -5.453125 L 11.203125 -28.25 L 18 -28.25 L 14.15625 0 L 3.84375 0 L 0.3125 -28.25 L 7.59375 -28.25 Z M 9.25 -5.453125 "/></g></g></g><g fill="#ffffff" fill-opacity="1"><g transform="translate(219.776176, 368.265036)"><g><path d="M 18.125 0 L 10.84375 0 L 10.484375 -4.984375 L 7.828125 -4.984375 L 7.484375 0 L 0.203125 0 L 3.765625 -28.25 L 14.25 -28.25 Z M 7.828125 -9.96875 L 10.359375 -9.96875 L 9.09375 -23.265625 L 9.015625 -23.265625 Z M 7.828125 -9.96875 "/></g></g></g><g fill="#ffffff" fill-opacity="1"><g transform="translate(238.096687, 368.265036)"><g><path d="M 8.03125 0 L 0.75 0 L 0.75 -28.25 L 8.03125 -28.25 Z M 8.03125 0 "/></g></g></g><g fill="#ffffff" fill-opacity="1"><g transform="translate(246.881033, 368.265036)"><g><path d="M 8.15625 -5.453125 L 12.96875 -5.453125 L 12.96875 0 L 0.875 0 L 0.875 -28.25 L 8.15625 -28.25 Z M 8.15625 -5.453125 "/></g></g></g><g fill="#ffffff" fill-opacity="1"><g transform="translate(260.057541, 368.265036)"><g><path d="M 18.125 0 L 10.84375 0 L 10.484375 -4.984375 L 7.828125 -4.984375 L 7.484375 0 L 0.203125 0 L 3.765625 -28.25 L 14.25 -28.25 Z M 7.828125 -9.96875 L 10.359375 -9.96875 L 9.09375 -23.265625 L 9.015625 -23.265625 Z M 7.828125 -9.96875 "/></g></g></g><g fill="#ffffff" fill-opacity="1"><g transform="translate(278.378052, 368.265036)"><g><path d="M 17.203125 -23.1875 L 17.203125 -19.78125 C 17.203125 -18.28125 16.785156 -17.222656 15.953125 -16.609375 C 15.128906 -16.003906 13.96875 -15.691406 12.46875 -15.671875 L 12.390625 -15.59375 C 14.148438 -15.476562 15.472656 -14.929688 16.359375 -13.953125 C 17.242188 -12.984375 17.6875 -11.757812 17.6875 -10.28125 L 17.6875 -6.046875 C 17.6875 -3.960938 17.113281 -2.429688 15.96875 -1.453125 C 14.820312 -0.484375 13.140625 0 10.921875 0 L 0.875 0 L 0.875 -28.25 L 11.359375 -28.25 C 13.335938 -28.25 14.804688 -27.835938 15.765625 -27.015625 C 16.722656 -26.203125 17.203125 -24.925781 17.203125 -23.1875 Z M 8.75 -17.25 C 9.300781 -17.25 9.710938 -17.421875 9.984375 -17.765625 C 10.265625 -18.109375 10.40625 -18.488281 10.40625 -18.90625 L 10.40625 -22.078125 C 10.40625 -22.441406 10.269531 -22.804688 10 -23.171875 C 9.738281 -23.546875 9.296875 -23.734375 8.671875 -23.734375 L 7.90625 -23.734375 L 7.90625 -17.25 Z M 10.40625 -6.453125 L 10.40625 -11.28125 C 10.40625 -11.832031 10.253906 -12.25 9.953125 -12.53125 C 9.648438 -12.820312 9.222656 -12.96875 8.671875 -12.96875 L 7.90625 -12.96875 L 7.90625 -4.75 C 8.019531 -4.71875 8.164062 -4.703125 8.34375 -4.703125 C 8.976562 -4.703125 9.476562 -4.832031 9.84375 -5.09375 C 10.21875 -5.363281 10.40625 -5.816406 10.40625 -6.453125 Z M 10.40625 -6.453125 "/></g></g></g><g fill="#ffffff" fill-opacity="1"><g transform="translate(296.698563, 368.265036)"><g><path d="M 8.15625 -5.453125 L 12.96875 -5.453125 L 12.96875 0 L 0.875 0 L 0.875 -28.25 L 8.15625 -28.25 Z M 8.15625 -5.453125 "/></g></g></g><g fill="#ffffff" fill-opacity="1"><g transform="translate(309.875071, 368.265036)"><g><path d="M 13.171875 -22.546875 L 8.15625 -22.546875 L 8.15625 -17.375 L 12.859375 -17.375 L 12.859375 -11.90625 L 8.15625 -11.90625 L 8.15625 -5.703125 L 13.5625 -5.703125 L 13.5625 0 L 0.875 0 L 0.875 -28.25 L 13.171875 -28.25 Z M 13.171875 -22.546875 "/></g></g></g><g fill="#ffffff" fill-opacity="1"><g transform="translate(323.798969, 368.265036)"><g/></g></g><g fill="#ffffff" fill-opacity="1"><g transform="translate(122.912081, 411.682335)"><g><path d="M 8.53125 -14.640625 L 5.296875 -14.640625 L 5.296875 -11.28125 L 8.0625 -11.28125 L 8.0625 -7.734375 L 5.296875 -7.734375 L 5.296875 0 L 0.5625 0 L 0.5625 -18.34375 L 8.53125 -18.34375 Z M 8.53125 -14.640625 "/></g></g></g><g fill="#ffffff" fill-opacity="1"><g transform="translate(131.46147, 411.682335)"><g><path d="M 6.1875 -18.71875 C 8.019531 -18.71875 9.414062 -18.28125 10.375 -17.40625 C 11.332031 -16.539062 11.8125 -15.128906 11.8125 -13.171875 L 11.8125 -5.15625 C 11.8125 -3.226562 11.335938 -1.820312 10.390625 -0.9375 C 9.441406 -0.0507812 8.039062 0.390625 6.1875 0.390625 C 4.34375 0.390625 2.941406 -0.0390625 1.984375 -0.90625 C 1.035156 -1.769531 0.5625 -3.1875 0.5625 -5.15625 L 0.5625 -13.171875 C 0.5625 -15.109375 1.035156 -16.515625 1.984375 -17.390625 C 2.941406 -18.273438 4.34375 -18.71875 6.1875 -18.71875 Z M 5.296875 -14.515625 L 5.296875 -3.828125 C 5.296875 -3.460938 5.367188 -3.179688 5.515625 -2.984375 C 5.671875 -2.796875 5.894531 -2.703125 6.1875 -2.703125 C 6.476562 -2.703125 6.703125 -2.796875 6.859375 -2.984375 C 7.015625 -3.179688 7.09375 -3.460938 7.09375 -3.828125 L 7.09375 -14.515625 C 7.09375 -14.867188 7.015625 -15.144531 6.859375 -15.34375 C 6.703125 -15.539062 6.476562 -15.640625 6.1875 -15.640625 C 5.59375 -15.640625 5.296875 -15.265625 5.296875 -14.515625 Z M 5.296875 -14.515625 "/></g></g></g><g fill="#ffffff" fill-opacity="1"><g transform="translate(143.836256, 411.682335)"><g><path d="M 11.140625 -14.71875 L 11.140625 -12.875 C 11.140625 -11.863281 10.910156 -11.101562 10.453125 -10.59375 C 9.992188 -10.09375 9.300781 -9.804688 8.375 -9.734375 L 8.375 -9.6875 C 9.382812 -9.613281 10.128906 -9.320312 10.609375 -8.8125 C 11.085938 -8.300781 11.328125 -7.539062 11.328125 -6.53125 L 11.328125 0 L 6.90625 0 L 6.90625 -7.03125 C 6.90625 -8.039062 6.492188 -8.546875 5.671875 -8.546875 C 5.484375 -8.546875 5.304688 -8.523438 5.140625 -8.484375 L 5.140625 0 L 0.5625 0 L 0.5625 -18.34375 L 6.09375 -18.34375 C 7.1875 -18.34375 8.082031 -18.257812 8.78125 -18.09375 C 9.488281 -17.9375 10.054688 -17.59375 10.484375 -17.0625 C 10.921875 -16.539062 11.140625 -15.757812 11.140625 -14.71875 Z M 5.46875 -11.328125 C 6.019531 -11.328125 6.394531 -11.453125 6.59375 -11.703125 C 6.800781 -11.953125 6.90625 -12.238281 6.90625 -12.5625 L 6.90625 -14.171875 C 6.90625 -14.484375 6.800781 -14.765625 6.59375 -15.015625 C 6.394531 -15.273438 6.03125 -15.40625 5.5 -15.40625 L 5.140625 -15.40625 L 5.140625 -11.328125 Z M 5.46875 -11.328125 "/></g></g></g><g fill="#ffffff" fill-opacity="1"><g transform="translate(155.72324, 411.682335)"><g/></g></g><g fill="#ffffff" fill-opacity="1"><g transform="translate(161.884961, 411.682335)"><g><path d="M 10.375 -14.640625 L 7.578125 -14.640625 L 7.578125 0 L 2.84375 0 L 2.84375 -14.640625 L 0.046875 -14.640625 L 0.046875 -18.34375 L 10.375 -18.34375 Z M 10.375 -14.640625 "/></g></g></g><g fill="#ffffff" fill-opacity="1"><g transform="translate(172.308538, 411.682335)"><g><path d="M 5.296875 -11.6875 L 7.09375 -11.6875 L 7.09375 -18.34375 L 11.8125 -18.34375 L 11.8125 0 L 7.09375 0 L 7.09375 -7.6875 L 5.296875 -7.6875 L 5.296875 0 L 0.5625 0 L 0.5625 -18.34375 L 5.296875 -18.34375 Z M 5.296875 -11.6875 "/></g></g></g><g fill="#ffffff" fill-opacity="1"><g transform="translate(184.683324, 411.682335)"><g><path d="M 5.21875 0 L 0.484375 0 L 0.484375 -18.34375 L 5.21875 -18.34375 Z M 5.21875 0 "/></g></g></g><g fill="#ffffff" fill-opacity="1"><g transform="translate(190.382921, 411.682335)"><g><path d="M 5.515625 -18.71875 C 8.992188 -18.71875 10.734375 -17.410156 10.734375 -14.796875 L 10.734375 -12.96875 L 6.5 -12.96875 L 6.5 -14.5625 C 6.5 -15.382812 6.191406 -15.796875 5.578125 -15.796875 C 5.046875 -15.796875 4.78125 -15.421875 4.78125 -14.671875 L 4.78125 -13.75 C 4.78125 -13.40625 4.898438 -13.082031 5.140625 -12.78125 C 5.378906 -12.476562 5.632812 -12.234375 5.90625 -12.046875 C 6.175781 -11.859375 6.613281 -11.582031 7.21875 -11.21875 C 7.957031 -10.78125 8.585938 -10.34375 9.109375 -9.90625 C 9.628906 -9.476562 10.082031 -8.925781 10.46875 -8.25 C 10.851562 -7.582031 11.046875 -6.785156 11.046875 -5.859375 L 11.046875 -4.21875 C 11.046875 -2.488281 10.550781 -1.285156 9.5625 -0.609375 C 8.582031 0.0546875 7.234375 0.390625 5.515625 0.390625 C 3.640625 0.390625 2.316406 0.015625 1.546875 -0.734375 C 0.773438 -1.492188 0.390625 -2.660156 0.390625 -4.234375 L 0.390625 -6.671875 L 4.796875 -6.671875 L 4.796875 -3.640625 C 4.796875 -2.910156 5.0625 -2.546875 5.59375 -2.546875 C 5.882812 -2.546875 6.101562 -2.660156 6.25 -2.890625 C 6.394531 -3.117188 6.46875 -3.507812 6.46875 -4.0625 L 6.46875 -5.03125 C 6.46875 -5.5 6.34375 -5.910156 6.09375 -6.265625 C 5.851562 -6.628906 5.582031 -6.921875 5.28125 -7.140625 C 4.976562 -7.359375 4.550781 -7.640625 4 -7.984375 C 3.269531 -8.429688 2.660156 -8.851562 2.171875 -9.25 C 1.679688 -9.644531 1.253906 -10.15625 0.890625 -10.78125 C 0.535156 -11.414062 0.359375 -12.171875 0.359375 -13.046875 L 0.359375 -14.28125 C 0.359375 -17.238281 2.078125 -18.71875 5.515625 -18.71875 Z M 5.515625 -18.71875 "/></g></g></g><g fill="#ffffff" fill-opacity="1"><g transform="translate(201.782103, 411.682335)"><g/></g></g><g fill="#ffffff" fill-opacity="1"><g transform="translate(207.943824, 411.682335)"><g><path d="M 10.375 -14.640625 L 7.578125 -14.640625 L 7.578125 0 L 2.84375 0 L 2.84375 -14.640625 L 0.046875 -14.640625 L 0.046875 -18.34375 L 10.375 -18.34375 Z M 10.375 -14.640625 "/></g></g></g><g fill="#ffffff" fill-opacity="1"><g transform="translate(218.367401, 411.682335)"><g><path d="M 5.21875 0 L 0.484375 0 L 0.484375 -18.34375 L 5.21875 -18.34375 Z M 5.21875 0 "/></g></g></g><g fill="#ffffff" fill-opacity="1"><g transform="translate(224.066997, 411.682335)"><g><path d="M 10.375 -14.640625 L 7.578125 -14.640625 L 7.578125 0 L 2.84375 0 L 2.84375 -14.640625 L 0.046875 -14.640625 L 0.046875 -18.34375 L 10.375 -18.34375 Z M 10.375 -14.640625 "/></g></g></g><g fill="#ffffff" fill-opacity="1"><g transform="translate(234.490575, 411.682335)"><g><path d="M 5.296875 -3.546875 L 8.421875 -3.546875 L 8.421875 0 L 0.5625 0 L 0.5625 -18.34375 L 5.296875 -18.34375 Z M 5.296875 -3.546875 "/></g></g></g><g fill="#ffffff" fill-opacity="1"><g transform="translate(243.039964, 411.682335)"><g><path d="M 8.546875 -14.640625 L 5.296875 -14.640625 L 5.296875 -11.28125 L 8.34375 -11.28125 L 8.34375 -7.734375 L 5.296875 -7.734375 L 5.296875 -3.703125 L 8.8125 -3.703125 L 8.8125 0 L 0.5625 0 L 0.5625 -18.34375 L 8.546875 -18.34375 Z M 8.546875 -14.640625 "/></g></g></g></svg>