<svg xmlns="http://www.w3.org/2000/svg" xmlns:xlink="http://www.w3.org/1999/xlink" width="500" zoomAndPan="magnify" viewBox="0 0 375 374.999991" height="500" preserveAspectRatio="xMidYMid meet" version="1.0"><defs><g/></defs><g fill="#c18c5d" fill-opacity="1"><g transform="translate(29.917088, 257.430763)"><g><path d="M 63.578125 -126.449219 C 28.496094 -126.449219 0 -98.488281 0 -63.222656 C 0 -27.78125 28.496094 0 63.578125 0 C 69.8125 0 75.691406 -0.355469 81.390625 -2.316406 L 72.484375 -15.851562 C 72.128906 -16.742188 73.019531 -17.273438 73.375 -16.742188 L 82.28125 -8.015625 C 88.691406 -1.960938 95.457031 0 101.691406 0 C 116.652344 0 129.476562 -13.355469 129.476562 -28.851562 C 129.476562 -35.261719 128.761719 -41.675781 122.351562 -47.90625 L 111.488281 -58.59375 C 111.488281 -58.59375 111.488281 -58.949219 112.023438 -58.59375 L 126.449219 -49.6875 C 127.515625 -54.320312 127.871094 -58.59375 127.871094 -63.222656 C 127.871094 -98.488281 99.019531 -126.449219 63.578125 -126.449219 Z M 63.578125 -70.167969 C 67.496094 -70.167969 70.703125 -66.785156 70.703125 -63.222656 C 70.703125 -59.484375 67.496094 -56.632812 63.578125 -56.632812 C 59.839844 -56.632812 56.632812 -59.484375 56.632812 -63.222656 C 56.632812 -66.785156 59.839844 -70.167969 63.578125 -70.167969 Z M 63.578125 -70.167969 "/></g></g></g><g fill="#c18c5d" fill-opacity="1"><g transform="translate(162.595356, 257.430763)"><g><path d="M 47.195312 -87.980469 C 46.304688 -87.089844 44.703125 -88.511719 45.414062 -89.582031 L 55.566406 -105.433594 C 52.714844 -117.71875 41.496094 -126.449219 28.671875 -126.449219 C 12.824219 -126.449219 0 -113.445312 0 -97.773438 L 0 -28.671875 C 0 -13 12.824219 0 28.671875 0 C 37.042969 0 43.457031 -3.5625 50.042969 -10.152344 L 69.101562 -29.207031 C 69.101562 -21.90625 71.949219 -14.070312 77.472656 -8.546875 C 82.8125 -2.847656 89.9375 0 97.238281 0 C 104.542969 0 111.84375 -2.847656 117.542969 -8.546875 L 186.644531 -77.648438 C 197.683594 -88.691406 197.328125 -107.390625 186.644531 -118.078125 C 181.121094 -123.777344 173.820312 -126.449219 166.519531 -126.449219 C 159.21875 -126.449219 152.269531 -123.597656 146.75 -118.078125 L 116.472656 -88.15625 C 115.226562 -86.910156 113.800781 -88.15625 114.691406 -89.582031 L 124.84375 -105.433594 C 121.640625 -118.609375 109.707031 -126.449219 97.417969 -126.449219 C 90.292969 -126.449219 83.171875 -123.777344 77.472656 -118.078125 Z M 47.195312 -87.980469 "/></g></g></g><g fill="#ecc8af" fill-opacity="1"><g transform="translate(22.046297, 249.559966)"><g><path d="M 63.578125 -126.449219 C 28.496094 -126.449219 0 -98.488281 0 -63.222656 C 0 -27.78125 28.496094 0 63.578125 0 C 69.8125 0 75.691406 -0.355469 81.390625 -2.316406 L 72.484375 -15.851562 C 72.128906 -16.742188 73.019531 -17.273438 73.375 -16.742188 L 82.28125 -8.015625 C 88.691406 -1.960938 95.457031 0 101.691406 0 C 116.652344 0 129.476562 -13.355469 129.476562 -28.851562 C 129.476562 -35.261719 128.761719 -41.675781 122.351562 -47.90625 L 111.488281 -58.59375 C 111.488281 -58.59375 111.488281 -58.949219 112.023438 -58.59375 L 126.449219 -49.6875 C 127.515625 -54.320312 127.871094 -58.59375 127.871094 -63.222656 C 127.871094 -98.488281 99.019531 -126.449219 63.578125 -126.449219 Z M 63.578125 -70.167969 C 67.496094 -70.167969 70.703125 -66.785156 70.703125 -63.222656 C 70.703125 -59.484375 67.496094 -56.632812 63.578125 -56.632812 C 59.839844 -56.632812 56.632812 -59.484375 56.632812 -63.222656 C 56.632812 -66.785156 59.839844 -70.167969 63.578125 -70.167969 Z M 63.578125 -70.167969 "/></g></g></g><g fill="#ecc8af" fill-opacity="1"><g transform="translate(154.724564, 249.559966)"><g><path d="M 47.195312 -87.980469 C 46.304688 -87.089844 44.703125 -88.511719 45.414062 -89.582031 L 55.566406 -105.433594 C 52.714844 -117.71875 41.496094 -126.449219 28.671875 -126.449219 C 12.824219 -126.449219 0 -113.445312 0 -97.773438 L 0 -28.671875 C 0 -13 12.824219 0 28.671875 0 C 37.042969 0 43.457031 -3.5625 50.042969 -10.152344 L 69.101562 -29.207031 C 69.101562 -21.90625 71.949219 -14.070312 77.472656 -8.546875 C 82.8125 -2.847656 89.9375 0 97.238281 0 C 104.542969 0 111.84375 -2.847656 117.542969 -8.546875 L 186.644531 -77.648438 C 197.683594 -88.691406 197.328125 -107.390625 186.644531 -118.078125 C 181.121094 -123.777344 173.820312 -126.449219 166.519531 -126.449219 C 159.21875 -126.449219 152.269531 -123.597656 146.75 -118.078125 L 116.472656 -88.15625 C 115.226562 -86.910156 113.800781 -88.15625 114.691406 -89.582031 L 124.84375 -105.433594 C 121.640625 -118.609375 109.707031 -126.449219 97.417969 -126.449219 C 90.292969 -126.449219 83.171875 -123.777344 77.472656 -118.078125 Z M 47.195312 -87.980469 "/></g></g></g></svg>